<svg width="35" height="41" viewBox="0 0 35 41" fill="none" xmlns="http://www.w3.org/2000/svg">
<path d="M28.5083 20.5002C29.822 19.3182 31.004 18.1362 31.967 16.9969C34.6817 13.7999 35.5575 11.2595 34.4627 9.63967C33.8504 8.71937 32.7111 8.23872 31.0912 8.23872C29.0761 8.23872 26.4485 8.94007 23.4279 10.1648C22.422 4.73565 20.5832 0.662689 17.9111 0.662689C15.2391 0.662689 13.4002 4.73556 12.3502 10.1648C9.37204 8.94003 6.70029 8.23872 4.72971 8.23872C3.10981 8.23872 1.97055 8.72112 1.35819 9.63967C0.307912 11.2596 1.18371 13.7998 3.8539 16.9969C4.81694 18.1362 5.99894 19.3182 7.31266 20.5002C5.99894 21.6822 4.81694 22.8642 3.8539 24.0034C1.13923 27.2005 0.26342 29.7409 1.35819 31.3607C1.97055 32.281 3.10981 32.7616 4.72971 32.7616C6.74478 32.7616 9.37239 32.0603 12.3931 30.8355C13.4006 36.2647 15.2395 40.3377 17.9116 40.3377C20.5837 40.3377 22.4224 36.2648 23.4725 30.8355C26.4506 32.062 29.1206 32.7616 31.1359 32.7616C32.7558 32.7616 33.895 32.2792 34.5074 31.3607C35.5577 29.7408 34.6819 27.2006 32.0117 24.0034C31.0042 22.8642 29.8222 21.6822 28.5084 20.5002H28.5083ZM31.0929 9.85863C31.7943 9.85863 32.7573 9.99034 33.108 10.5155C33.5904 11.2168 33.1952 13.0112 30.6995 15.9446C29.7365 17.0839 28.5972 18.2659 27.2835 19.4479C26.3204 18.6593 25.3129 17.8707 24.2626 17.0839C24.1754 15.2878 23.9992 13.5362 23.7375 11.8737C26.6694 10.56 29.2525 9.85863 31.093 9.85863H31.0929ZM20.5832 24.5285C19.7074 25.0981 18.8316 25.6677 17.9112 26.1929C17.0354 25.6677 16.1596 25.1426 15.2393 24.5285C14.4952 24.0461 13.7939 23.5654 13.0943 23.083V20.5001C13.0943 19.6243 13.0943 18.7485 13.1388 17.9171C13.8401 17.4347 14.5397 16.9541 15.2838 16.4717C16.1596 15.9021 17.0354 15.3325 17.9557 14.8073C18.8315 15.3325 19.7073 15.8576 20.6277 16.4717C21.3717 16.9541 22.0731 17.4347 22.7727 17.9171C22.7282 18.7485 22.7282 19.6243 22.7282 20.5001C22.7282 21.3759 22.7282 22.2517 22.6837 23.083C22.0269 23.5654 21.2828 24.0478 20.5832 24.5285H20.5832ZM22.5965 25.1425C22.5093 26.3245 22.3776 27.4193 22.2459 28.4713C21.3701 28.0779 20.4498 27.5955 19.5739 27.1131C20.2308 26.7197 20.8432 26.3245 21.5 25.8866C21.8524 25.6677 22.2031 25.4042 22.5965 25.1425H22.5965ZM16.2916 27.1131C15.3713 27.5955 14.4955 28.0762 13.6196 28.4713C13.4879 27.4211 13.3562 26.3263 13.269 25.1425C13.6196 25.406 14.0131 25.6677 14.4082 25.8866C15.0206 26.3245 15.6347 26.718 16.2916 27.1131H16.2916ZM11.4746 21.8583C10.905 21.4203 10.3353 20.9824 9.81021 20.5C10.3353 20.0621 10.905 19.5797 11.4746 19.1418V20.5V21.8583ZM13.2262 15.8576C13.3135 14.6756 13.4452 13.5809 13.5769 12.5288C14.4527 12.9223 15.373 13.4047 16.2488 13.8871C15.592 14.2805 14.9796 14.6756 14.3227 15.1135C13.9704 15.3325 13.6197 15.5959 13.2263 15.8576H13.2262ZM19.5312 13.8871C20.4515 13.4047 21.3273 12.924 22.2031 12.5288C22.3348 13.5791 22.4665 14.6739 22.5538 15.8576C22.2031 15.5942 21.8097 15.3325 21.4145 15.1135C20.8022 14.6756 20.188 14.2822 19.5312 13.8871H19.5312ZM24.3482 19.1419C24.9178 19.5798 25.4874 20.0177 26.0126 20.5001C25.4874 20.938 24.9178 21.4204 24.3482 21.8583V20.5001V19.1419ZM17.9114 2.32721C19.2696 2.32721 20.9767 5.43705 21.9398 10.8664C20.626 11.4787 19.2678 12.1801 17.9114 12.9687C16.5104 12.1801 15.1967 11.4805 13.883 10.8664C14.846 5.39255 16.5532 2.32721 17.9114 2.32721ZM5.12497 15.947C2.67199 13.0133 2.27858 11.2171 2.71648 10.5178C3.06715 9.99267 3.98571 9.86095 4.73155 9.86095C6.57041 9.86095 9.15528 10.5623 12.0888 11.8315C11.8254 13.4959 11.6509 15.2903 11.5637 17.0417C10.5134 17.8303 9.50587 18.6189 8.54282 19.4057C7.2274 18.2665 6.04369 17.0845 5.1251 15.947H5.12497ZM4.72983 31.1419C4.02848 31.1419 3.06543 31.0101 2.71476 30.485C2.23236 29.7836 2.62752 27.9893 5.12324 25.0558C6.08628 23.9166 7.22554 22.7346 8.53926 21.5526C9.5023 22.3412 10.4653 23.1298 11.5601 23.9166C11.6473 25.7127 11.8235 27.4643 12.0852 29.1715C9.15333 30.4407 6.57026 31.142 4.72974 31.142L4.72983 31.1419ZM17.9117 38.6734C16.5535 38.6734 14.8463 35.5636 13.8833 30.1342C15.197 29.5219 16.5552 28.8205 17.9117 28.0319C19.3126 28.8205 20.6263 29.5201 21.9401 30.1342C20.977 35.6081 19.2698 38.6734 17.9117 38.6734ZM33.1066 30.485C32.7559 31.0101 31.8373 31.1419 31.0915 31.1419C29.2526 31.1419 26.6678 30.4405 23.7342 29.1713C23.9977 27.5069 24.1721 25.7125 24.2594 23.9611C25.3097 23.1725 26.3172 22.3839 27.2802 21.5971C28.594 22.7791 29.7759 23.9611 30.6962 25.1003C33.1937 27.9895 33.5888 29.7837 33.1064 30.4853L33.1066 30.485Z" fill="black"/>
</svg>
