<svg width="36" height="35" viewBox="0 0 36 35" fill="none" xmlns="http://www.w3.org/2000/svg">
<path d="M24.5932 9.18285C24.4714 8.7553 24.0437 8.44957 23.6137 8.50925C23.4297 8.50925 19.6383 8.9368 17.0077 12.9735C16.0903 12.2999 14.4992 11.5666 12.2989 12.1184C11.931 12.1805 11.6251 12.4862 11.6251 12.9138C10.9514 17.5619 14.9268 22.0235 16.8238 23.8579C16.9456 24.1636 17.1296 24.4693 17.1917 24.6533C17.2538 25.998 17.3757 26.9152 17.4354 27.037C17.4975 27.4646 17.9251 27.7703 18.3528 27.7703H18.5367C19.0265 27.7082 19.392 27.2209 19.2702 26.7313C19.2702 26.7313 19.1483 25.998 19.0862 24.8347C19.8818 23.9797 22.45 21.0441 23.7354 18.4767C25.8784 14.0149 24.5932 9.3669 24.5932 9.18285ZM13.3409 13.831C14.7481 13.7092 15.6655 14.2585 16.1553 14.6861C16.0932 14.87 15.9713 15.1136 15.9116 15.3597C15.9116 15.3597 15.9116 15.2976 15.8495 15.2976C15.5437 14.87 14.9942 14.8079 14.5641 15.0539C14.1365 15.3597 14.0744 15.909 14.3205 16.339C14.5641 16.7068 14.9942 17.4401 15.4218 18.7227V18.7848C15.4218 19.0906 15.4839 19.3963 15.4839 19.702C14.3205 17.9894 13.2788 15.9091 13.3409 13.831ZM22.0251 17.5619C21.2917 19.0285 20.0685 20.6814 19.0292 21.9043C19.2729 19.5206 19.9466 16.585 21.7814 14.0769C22.0872 13.6494 22.0251 13.0976 21.5975 12.7919C21.1698 12.4861 20.6179 12.5482 20.3121 12.9758C18.6613 15.178 17.8036 17.6836 17.3759 19.9453C17.0701 18.3545 17.1323 16.5822 17.9254 14.9317C19.4544 11.9962 21.6572 10.9572 22.8804 10.5893C23.1886 11.9341 23.3701 14.8702 22.0251 17.5619Z" fill="black"/>
<path d="M18.2966 30.9522C18.2966 30.4626 18.6645 30.035 19.1518 29.9729C19.6416 29.9108 20.0693 30.3407 20.1314 30.828C20.1935 31.3176 19.7635 31.7452 19.2761 31.8073H19.214C18.7243 31.8073 18.2966 31.4418 18.2966 30.9522ZM15.3604 31.5637C14.8706 31.4419 14.5648 30.9522 14.627 30.4625C14.7488 29.9729 15.2386 29.6671 15.7283 29.7293C16.2181 29.8511 16.5239 30.3407 16.4618 30.8304C16.3997 31.258 15.972 31.5637 15.5444 31.5637C15.4823 31.6258 15.4201 31.5637 15.3604 31.5637ZM21.9039 30.4625C21.72 29.9729 21.9661 29.4832 22.4534 29.3017C22.9432 29.1178 23.433 29.3638 23.6145 29.8511C23.7985 30.3408 23.5524 30.8304 23.065 31.0119C22.9432 31.074 22.8811 31.074 22.7592 31.074C22.3937 31.074 22.0258 30.8304 21.9039 30.4625ZM11.6908 30.2786C11.2631 30.035 11.0792 29.4832 11.3229 29.0557C11.5665 28.6281 12.1184 28.4442 12.5461 28.6879C12.9737 28.9315 13.1577 29.4832 12.914 29.9108C12.73 30.2165 12.4242 30.4004 12.1184 30.4004C11.9344 30.4028 11.8126 30.3407 11.6908 30.2786ZM25.2678 28.9959C24.962 28.5684 25.0838 28.0166 25.4517 27.7109C25.8794 27.4051 26.4313 27.527 26.7371 27.8948C27.0429 28.3224 26.921 28.8741 26.4934 29.1799C26.3094 29.3017 26.1255 29.3638 25.9439 29.3638C25.7575 29.3614 25.4517 29.2396 25.2678 28.9959ZM8.44866 28.0166C8.08074 27.6488 8.08074 27.0994 8.38655 26.7316C8.75446 26.3637 9.30395 26.3637 9.67189 26.6695C10.0398 27.0373 10.0398 27.5867 9.73401 27.9545C9.55005 28.1384 9.30636 28.2602 9.06026 28.2602C8.8763 28.2626 8.63262 28.2005 8.44866 28.0166ZM28.1417 26.6719C27.714 26.3661 27.6519 25.7547 28.0198 25.3868C28.3256 25.019 28.9372 24.8972 29.3052 25.265C29.6731 25.5707 29.7328 26.1822 29.427 26.5501C29.2431 26.7937 28.9994 26.8558 28.6936 26.8558C28.5096 26.8558 28.2635 26.7937 28.1417 26.6719ZM6.00225 25.0214C5.75856 24.5938 5.8804 24.0421 6.30805 23.7363C6.73569 23.4927 7.28759 23.6145 7.59339 24.0421C7.83708 24.4696 7.71524 25.0214 7.28759 25.3271C7.16575 25.3892 6.98179 25.4489 6.79783 25.4489C6.42992 25.4489 6.12408 25.3271 6.00225 25.0214ZM30.223 23.6767C29.7332 23.4927 29.5492 22.9434 29.7332 22.4537C29.9172 21.9641 30.4667 21.7801 30.9564 21.9641C31.4462 22.148 31.6302 22.6973 31.4462 23.187C31.3243 23.5548 30.9564 23.7364 30.5909 23.7364C30.4667 23.7364 30.3448 23.7364 30.223 23.6767ZM4.41147 21.4123C4.28962 20.9227 4.53331 20.433 5.02307 20.3112C5.51283 20.1894 6.00261 20.433 6.18414 20.9227C6.30598 21.4123 6.06229 21.902 5.57253 22.0835C5.51042 22.0835 5.38858 22.1456 5.32885 22.1456C4.9012 22.0859 4.53568 21.8423 4.41147 21.4123ZM31.4462 20.1894C30.9564 20.1273 30.5909 19.64 30.6506 19.1504C30.7127 18.6607 31.2001 18.2953 31.6898 18.355C32.1796 18.4171 32.5451 18.9043 32.4854 19.394C32.4233 19.8836 31.9957 20.1894 31.568 20.1894C31.5059 20.2515 31.5059 20.1894 31.4462 20.1894ZM3.86163 17.562C3.86163 17.0126 4.28928 16.5826 4.77904 16.5826C5.2688 16.5826 5.69644 17.0102 5.69644 17.4998C5.69644 17.9895 5.2688 18.417 4.77904 18.417C4.28928 18.4791 3.86163 18.0492 3.86163 17.562ZM30.6505 15.7873C30.5884 15.2976 30.9563 14.808 31.4461 14.7483C31.9358 14.6862 32.4256 15.054 32.4853 15.5437C32.5474 16.0333 32.1795 16.523 31.6897 16.5827H31.5679C31.0781 16.5827 30.7102 16.2149 30.6505 15.7873ZM5.02307 14.7483C4.53331 14.6265 4.22749 14.1368 4.41147 13.5875C4.53331 13.0978 5.02307 12.7921 5.51284 12.976C6.0026 13.0978 6.30842 13.6496 6.12444 14.1368C6.0026 14.5644 5.63468 14.8104 5.26918 14.8104C5.20706 14.8104 5.08518 14.7483 5.02307 14.7483ZM29.7331 12.4863C29.5491 11.9967 29.7331 11.507 30.2228 11.2634C30.7126 11.0795 31.2621 11.2634 31.4461 11.7531C31.63 12.2427 31.446 12.7324 30.9563 12.976C30.8344 13.0381 30.7126 13.0381 30.5884 13.0381C30.2228 13.0357 29.8549 12.8518 29.7331 12.4863ZM6.24628 11.2634C5.81863 11.0198 5.69679 10.468 5.94047 9.97834C6.18416 9.55079 6.79574 9.42897 7.22582 9.6726C7.65347 9.91624 7.77531 10.5277 7.53162 10.9577C7.34766 11.2634 7.04186 11.3852 6.73605 11.3852C6.55209 11.4473 6.43023 11.3852 6.24628 11.2634ZM27.9582 9.5508C27.6524 9.18296 27.7145 8.57147 28.0801 8.26574C28.448 7.96 29.0596 8.0221 29.3654 8.38755C29.6712 8.75539 29.6091 9.36688 29.2436 9.67262C29.0596 9.79443 28.8756 9.85653 28.632 9.85653C28.3883 9.91863 28.1422 9.79443 27.9582 9.5508ZM8.38689 8.26574C8.01897 7.8979 8.08109 7.34853 8.449 6.98067C8.81692 6.61281 9.42855 6.67494 9.73435 7.04277C10.1023 7.41061 10.0402 8.0221 9.67224 8.32784C9.48828 8.51175 9.24459 8.57147 9.06063 8.57147C8.81695 8.57147 8.57087 8.51176 8.38689 8.26574ZM25.4519 7.22673C25.0242 6.92099 24.9621 6.37165 25.2082 5.94166C25.514 5.51411 26.0634 5.45201 26.4935 5.69803C26.9212 6.00377 26.9833 6.55311 26.7372 6.9831C26.5532 7.22673 26.2474 7.35093 26.0038 7.35093C25.8174 7.41064 25.6358 7.34854 25.4519 7.22673ZM11.2009 6.00379C10.9572 5.57624 11.1388 5.02446 11.5688 4.78085C11.9964 4.53722 12.5483 4.71875 12.792 5.14869C13.0357 5.57624 12.8541 6.12802 12.4241 6.37163C12.3022 6.43373 12.1183 6.49344 11.9964 6.49344C11.6906 6.49344 11.3848 6.30952 11.2009 6.00379ZM22.3938 5.69805C21.9041 5.51414 21.6604 5.02446 21.8443 4.53724C22.0283 4.04759 22.5181 3.80397 23.0054 3.98787C23.4952 4.17179 23.7389 4.66147 23.5549 5.14869C23.4331 5.51652 23.0651 5.76016 22.6996 5.76016C22.6375 5.76016 22.5157 5.69805 22.3938 5.69805ZM14.5647 4.53724C14.4429 4.04759 14.7487 3.55791 15.2981 3.43611C15.7879 3.31429 16.2777 3.67974 16.3995 4.16938C16.5213 4.65902 16.1558 5.14871 15.6661 5.27052H15.4821C15.0545 5.27052 14.6865 4.96478 14.5647 4.53724ZM19.0896 4.96479C18.5998 4.90269 18.1722 4.47514 18.2343 3.98547C18.2343 3.49581 18.7241 3.13039 19.2139 3.13039C19.7036 3.13039 20.1313 3.62004 20.0691 4.10971C20.007 4.59698 19.6415 4.96479 19.0896 4.96479Z" fill="black"/>
<path d="M18.2337 34.9269C8.63218 34.9269 0.80304 27.0995 0.80304 17.5C0.80304 7.90055 8.63218 0.0731354 18.2337 0.0731354C27.8353 0.0731354 35.6644 7.90055 35.6644 17.5C35.6644 27.0995 27.8353 34.9269 18.2337 34.9269ZM18.2337 1.90754C9.60891 1.90754 2.63785 8.87707 2.63785 17.5C2.63785 26.1229 9.60891 33.0925 18.2337 33.0925C26.8586 33.0925 33.8296 26.1229 33.8296 17.5C33.8296 8.87707 26.8586 1.90754 18.2337 1.90754Z" fill="black"/>
</svg>
