<svg width="82" height="33" viewBox="0 0 82 33" fill="none" xmlns="http://www.w3.org/2000/svg">
<path d="M12.7178 31.5172L0 2.74658L16.0963 2.64208V10.2616H8.49001L11.1711 15.7158L16.9012 26.8036L16.3794 25.5724V16.5579H23.8286L16.0963 2.64208L32.6838 2.74658L20.0994 31.5172H12.7178Z" fill="#FE0003"/>
<path d="M42.5984 32.0508C39.8117 32.0508 37.3512 31.6061 35.2167 30.7168C33.1119 29.8274 31.4666 28.5379 30.2808 26.8481C29.095 25.1287 28.5021 23.0239 28.5021 20.5337C28.5021 18.0435 29.095 15.9387 30.2808 14.2193C31.4666 12.4702 33.1119 11.151 35.2167 10.2616C37.3512 9.37227 39.8117 8.9276 42.5984 8.9276C45.385 8.9276 47.8159 9.37227 49.8911 10.2616C51.9959 11.151 53.6412 12.4702 54.827 14.2193C56.0128 15.9387 56.6057 18.0435 56.6057 20.5337C56.6057 23.0239 56.0128 25.1287 54.827 26.8481C53.6412 28.5379 51.9959 29.8274 49.8911 30.7168C47.8159 31.6061 45.385 32.0508 42.5984 32.0508ZM42.5984 27.604C44.1399 27.604 45.5184 27.3372 46.7339 26.8036C47.979 26.2404 48.9572 25.44 49.6687 24.4024C50.3802 23.3351 50.736 22.0456 50.736 20.5337C50.736 19.0218 50.3802 17.7322 49.6687 16.665C48.9572 15.5681 47.9938 14.738 46.7783 14.1748C45.5629 13.6115 44.1696 13.3299 42.5984 13.3299C41.0568 13.3299 39.6635 13.6115 38.4184 14.1748C37.1733 14.738 36.1802 15.5533 35.4391 16.6205C34.7276 17.6877 34.3718 18.9921 34.3718 20.5337C34.3718 22.0456 34.7276 23.3351 35.4391 24.4024C36.1505 25.44 37.1288 26.2404 38.3739 26.8036C39.619 27.3372 41.0272 27.604 42.5984 27.604Z" fill="#FE0003"/>
<path d="M58.6764 0.523193H64.4572V31.5172H58.6764V0.523193Z" fill="#FE0003"/>
<path d="M64.0994 9.41674H81.2639V13.908H64.0994V9.41674ZM69.7913 3.36913H75.5721V31.5172H69.7913V3.36913Z" fill="#FE0003"/>
</svg>
