<svg width="43" height="41" viewBox="0 0 43 41" fill="none" xmlns="http://www.w3.org/2000/svg">
<path d="M39.5407 20.8866H37.5633C36.6164 18.0843 34.7948 15.6595 32.3661 13.9693L32.8436 9.57213V9.57049C32.8731 9.30469 32.7698 9.04055 32.5679 8.86334C32.3661 8.68614 32.092 8.61888 31.8311 8.68123L23.8162 10.6255C22.8874 10.4991 21.9519 10.4351 21.0149 10.4351C16.6974 10.3744 12.4845 11.7723 9.06315 14.4056C7.29738 15.7805 5.88606 17.5558 4.94408 19.5853C3.50814 19.4672 2.2823 18.5024 1.82934 17.1341C1.37642 15.7658 1.78503 14.2612 2.86815 13.3096C3.18651 13.0044 3.20621 12.5024 2.91574 12.171C2.62363 11.8412 2.12475 11.7985 1.78013 12.0742C0.263785 13.4097 -0.351594 15.4967 0.198164 17.4408C0.747921 19.3849 2.36766 20.8403 4.35823 21.1832C4.05792 22.2218 3.90695 23.2981 3.90531 24.3777C3.90531 28.3465 5.94844 32.0774 9.539 34.7223L8.81527 35.9824C8.47558 36.5911 8.40993 37.3146 8.63476 37.9758C8.83168 38.6239 9.26328 39.1752 9.84421 39.5246L11.5329 40.4959C11.9136 40.7174 12.3452 40.8339 12.785 40.8339C13.0082 40.8323 13.2297 40.8011 13.4447 40.742C14.1011 40.5698 14.6591 40.135 14.9857 39.541L15.9244 37.6887V37.687C18.9751 38.4598 22.1622 38.5238 25.2407 37.8773L25.4885 38.7912C25.7462 39.9479 26.7735 40.7682 27.96 40.7666C28.1372 40.7666 28.3128 40.7486 28.4867 40.7092L30.4068 40.2892H30.4051C31.7574 39.9348 32.568 38.5533 32.2185 37.2014L31.7902 35.1915C33.853 33.8658 35.5515 32.0463 36.7315 29.8971H39.541C40.8966 29.8742 41.9911 28.7815 42.0125 27.4263V23.3984C42.0125 22.0267 40.9126 20.9096 39.5407 20.8866ZM31.073 10.56L30.8087 12.9571V12.9554C29.7289 12.3402 28.5884 11.8348 27.4068 11.4493L31.073 10.56ZM40.3646 27.4019C40.3646 27.6201 40.2776 27.8285 40.1233 27.9844C39.9691 28.1386 39.759 28.2255 39.5408 28.2255H36.2455C36.2077 28.2223 36.1684 28.2223 36.1306 28.2255C36.0699 28.219 36.0092 28.219 35.9501 28.2255C35.8582 28.2748 35.7696 28.3289 35.6859 28.3896C35.6449 28.4356 35.6087 28.4848 35.5792 28.5373C35.5513 28.5684 35.5267 28.6013 35.5054 28.6374C34.378 30.8818 32.6269 32.7555 30.464 34.0304C30.4148 34.0681 30.3705 34.1091 30.3311 34.1551C30.295 34.1846 30.2622 34.2174 30.2326 34.2535C30.1867 34.347 30.1457 34.4438 30.1096 34.5423C30.1046 34.5882 30.1046 34.6358 30.1096 34.6818C30.103 34.7425 30.103 34.8032 30.1096 34.8622L30.661 37.4234V37.425C30.7972 37.8861 30.5576 38.3766 30.1096 38.5522L28.1321 39.1133C27.6496 39.2035 27.1852 38.8852 27.0933 38.4045L26.6404 36.6998C26.6223 36.6572 26.601 36.6145 26.5747 36.5751C26.5534 36.5177 26.5255 36.4636 26.4927 36.4111C26.4615 36.3815 26.4287 36.3536 26.3942 36.329C26.3515 36.2831 26.3056 36.2404 26.2531 36.206H26.1464C26.0873 36.1764 26.0233 36.1535 25.9577 36.1387H25.833C25.7673 36.1321 25.7017 36.1321 25.636 36.1387C22.3818 36.9361 18.9764 36.877 15.7504 35.9664H15.3401L15.1924 36.0156L15.0612 36.0895L14.9381 36.1879L14.9364 36.1896C14.8987 36.2273 14.8659 36.2683 14.8363 36.3126C14.8166 36.3339 14.7969 36.3553 14.7789 36.3782L13.5596 38.7835C13.4496 38.9804 13.2609 39.1231 13.041 39.1789C12.8178 39.2429 12.5799 39.2101 12.3813 39.087L10.6844 38.1076C10.4629 37.9665 10.2988 37.7499 10.2233 37.4989C10.1265 37.2839 10.1265 37.0378 10.2233 36.8229L11.3277 34.9197V34.9213C11.3458 34.8787 11.3589 34.8344 11.3687 34.7884C11.3901 34.7392 11.4065 34.6867 11.418 34.6326C11.4229 34.5801 11.4229 34.5276 11.418 34.4751C11.436 34.3717 11.418 34.2651 11.3687 34.1715C11.3507 34.1223 11.3294 34.0764 11.3031 34.0304C11.2686 33.9894 11.2293 33.95 11.1882 33.9156C11.157 33.8795 11.1242 33.8467 11.0881 33.8171C7.57133 31.4693 5.55274 28.0516 5.55274 24.3961V24.3945C5.55274 23.1459 5.78741 21.9088 6.24525 20.7472V20.6898C7.07069 18.7423 8.38353 17.0392 10.0591 15.7479C13.1918 13.3475 17.0434 12.076 20.9904 12.14C21.9061 12.14 22.8201 12.2072 23.7244 12.3385H23.767C26.3566 12.6912 28.8331 13.6297 31.0072 15.0801C33.5 16.6732 35.3247 19.1211 36.1389 21.9663V22.0237C36.1586 22.0746 36.1832 22.1254 36.2127 22.1714C36.2931 22.3059 36.4064 22.4158 36.5426 22.493L36.6821 22.5422H39.5408C39.7591 22.5422 39.9691 22.6291 40.1234 22.7834C40.2776 22.9376 40.3646 23.1476 40.3646 23.3658L40.3646 27.4019Z" fill="black"/>
<path d="M21.255 14.4712C19.1381 14.4646 17.0818 15.1832 15.431 16.5056C15.0749 16.7944 15.0224 17.3162 15.3112 17.6722C15.6001 18.0266 16.1219 18.0791 16.4764 17.7903C17.9369 16.6467 19.7618 16.0675 21.6143 16.1578C23.4671 16.248 25.2263 17.0044 26.567 18.2858C26.8969 18.5992 27.4187 18.586 27.7338 18.2563C28.0472 17.9265 28.0341 17.4047 27.7043 17.0914C25.9729 15.4179 23.6627 14.4793 21.255 14.4712Z" fill="black"/>
<path d="M33.7417 22.2531C33.7417 23.7806 31.4529 23.7806 31.4529 22.2531C31.4529 20.7273 33.7417 20.7273 33.7417 22.2531Z" fill="black"/>
<path d="M20.8423 7.67678C22.3603 7.67678 23.7306 6.7629 24.3115 5.35849C24.8941 3.95571 24.5724 2.3396 23.4975 1.26658C22.4243 0.191923 20.8079 -0.129644 19.4047 0.452796C18 1.0336 17.0859 2.40357 17.0859 3.92123C17.0859 5.99507 18.7664 7.67678 20.8423 7.67678ZM20.8423 1.8129C21.694 1.8129 22.4637 2.32646 22.7902 3.11563C23.1168 3.90317 22.9363 4.80881 22.3324 5.41263C21.7301 6.01477 20.8226 6.19525 20.0349 5.87036C19.2472 5.54387 18.7335 4.77437 18.7335 3.92123C18.7335 2.75798 19.6772 1.8129 20.8423 1.8129Z" fill="black"/>
</svg>
